<svg xmlns="http://www.w3.org/2000/svg" width="36" height="36" viewBox="0 0 36 " class="symbol symbol-arenaTopBarButton btn-symbol"><g fill="#162D3D" fill-rule="nonzero"><path d="M23.62 24H13v-7.62A1.38 1.38 0 0 1 14.38 15h9.24c.762 0 1.38.618 1.38 1.38v6.24A1.38 1.38 0 0 1 23.62 24zM14 23h9.62c.21 0 .38-.17.38-.38v-6.24a.38.38 0 0 0-.38-.38h-9.24a.38.38 0 0 0-.38.38V23z"></path><path d="M23.5 24h-13a.5.5 0 1 1 0-1h13a.5.5 0 1 1 0 1zM11 13a4 4 0 1 1 0-8 4 4 0 0 1 0 8zm0-7a3 3 0 1 0 0 6 3 3 0 0 0 0-6z"></path><path d="M14 20H5.5A1.5 1.5 0 0 1 4 18.5V18a6 6 0 0 1 6-6h2a6 6 0 0 1 5.37 3.27l-.89.46A5 5 0 0 0 12 13h-2a5 5 0 0 0-5 5v.46a.5.5 0 0 0 .5.5H14V20z"></path></g></svg>