<?xml version="1.0" encoding="UTF-8"?>
<svg width="15px" height="14px" viewBox="0 0 15 14" version="1.1" xmlns="http://www.w3.org/2000/svg" xmlns:xlink="http://www.w3.org/1999/xlink">
    <!-- Generator: Sketch 64 (93537) - https://sketch.com -->
    <title>Group</title>
    <desc>Created with Sketch.</desc>
    <g id="Page-3" stroke="none" stroke-width="1" fill="none" fill-rule="evenodd">
        <g id="Group" transform="translate(0.328483, 0.000000)" fill="#3899EC">
            <path d="M9,10 L12.25,9.917 C11.228,11.728 8.877,12.881 6.778,12.881 C3.601,12.881 1.016,10 1.016,7 L0.016,7 C0.016,11 3.049,13.881 6.778,13.881 C10.833,13.881 13,10.667 13,10.667 L13,14 L14,14 L14,9 L9,9 L9,10 Z" id="Path"></path>
            <path d="M5,4 L1.758,4.083 C2.781,2.272 5.135,1.119 7.234,1.119 C10.412,1.119 13,4 13,7 L14,7 C14,3 10.959,0.119 7.23,0.119 C3.175,0.119 1,3.333 1,3.333 L1,0 L0,0 L0,5 L5,5 L5,4 Z" id="Path"></path>
        </g>
    </g>
</svg>