<?xml version="1.0" encoding="UTF-8"?>
<svg width="28px" height="24px" viewBox="0 0 28 24" version="1.1" xmlns="http://www.w3.org/2000/svg" xmlns:xlink="http://www.w3.org/1999/xlink">
    <!-- Generator: Sketch 64 (93537) - https://sketch.com -->
    <title>Group 7</title>
    <desc>Created with Sketch.</desc>
    <defs>
        <path d="M16.5,12.5 C16.5,12.776 16.276,13 16,13 L10,13 C9.724,13 9.5,12.776 9.5,12.5 L9.5,4.5 C9.5,4.224 9.724,4 10,4 L12.5,4 L12.5,7.5 C12.5,7.776 12.724,8 13,8 L16.5,8 L16.5,12.5 Z M13.5,15.5 C13.5,15.776 13.276,16 13,16 L7,16 C6.724,16 6.5,15.776 6.5,15.5 L6.5,7.5 C6.5,7.224 6.724,7 7,7 L8.5,7 L8.5,12.5 C8.5,13.328 9.172,14 10,14 L13.5,14 L13.5,15.5 Z M13.5,4.5 L16,7 L13.5,7 L13.5,4.5 Z M13.5,3 L10,3 C9.172,3 8.5,3.672 8.5,4.5 L8.5,6 L7,6 C6.172,6 5.5,6.672 5.5,7.5 L5.5,15.5 C5.5,16.328 6.172,17 7,17 L13,17 C13.828,17 14.5,16.328 14.5,15.5 L14.5,14 L16,14 C16.828,14 17.5,13.328 17.5,12.5 L17.5,7 L13.5,3 Z" id="path-1"></path>
    </defs>
    <g id="FLOW-AFTER-ZOHAR" stroke="none" stroke-width="1" fill="none" fill-rule="evenodd">
        <g id="17" transform="translate(-705.000000, -492.000000)">
            <g id="Group-11" transform="translate(705.000000, 160.000000)">
                <g id="Group-8-Copy" transform="translate(0.000000, 330.000000)">
                    <g id="Group-7" transform="translate(0.500000, 0.000000)">
                        <rect id="Button" fill="#FFFFFF" x="0" y="2" width="27" height="24" rx="12"></rect>
                        <g id="Foundations-/-1.-Icons-/-1.-General-/-Light-/-Duplicate" transform="translate(2.000000, 0.000000)">
                            <mask id="mask-2" fill="white">
                                <use xlink:href="#path-1"></use>
                            </mask>
                            <use id="Mask" fill="#000000" fill-rule="evenodd" xlink:href="#path-1"></use>
                            <g id="Foundations-/-3.-Colors-/-01-Primary-/-B1" mask="url(#mask-2)" fill="#3899EC" fill-rule="evenodd">
                                <g transform="translate(1.500000, 0.000000)" id="B1">
                                    <rect x="0" y="0" width="20" height="20"></rect>
                                </g>
                            </g>
                        </g>
                    </g>
                </g>
            </g>
        </g>
    </g>
</svg>