<?xml version="1.0" encoding="UTF-8"?>
<svg width="11px" height="14px" viewBox="0 0 11 14" version="1.1" xmlns="http://www.w3.org/2000/svg" xmlns:xlink="http://www.w3.org/1999/xlink">
    <!-- Generator: Sketch 64 (93537) - https://sketch.com -->
    <title>Color Copy</title>
    <desc>Created with Sketch.</desc>
    <g id="Symbols" stroke="none" stroke-width="1" fill="none" fill-rule="evenodd">
        <path d="M1.8,8.45448156 C1.8,10.5352165 3.71939144,12.3181179 5.8,12.3181179 C7.88060856,12.3181179 9.8,10.5352165 9.8,8.45448156 C9.8,6.6968581 8.47674108,4.37769425 5.8,1.54128491 C3.12325892,4.37769425 1.8,6.6968581 1.8,8.45448156 Z M10.8,8.45448156 C10.8,11.1046554 8.41708589,13.3181179 5.8,13.3181179 C3.18291411,13.3181179 0.8,11.1046554 0.8,8.45448156 C0.8,6.29259428 2.47777896,3.31811793 5.8,0.1 C9.14852814,3.31811793 10.8,6.29259428 10.8,8.45448156 Z M6.8,6.31811793 C7.9045695,6.31811793 8.8,7.21354843 8.8,8.31811793 C8.8,9.42268743 7.9045695,10.3181179 6.8,10.3181179 L6.8,6.31811793 Z" id="Color-Copy" fill="#162D3D"></path>
    </g>
</svg>