<?xml version="1.0" encoding="UTF-8"?>
<svg width="15px" height="15px" viewBox="0 0 15 15" version="1.1" xmlns="http://www.w3.org/2000/svg" xmlns:xlink="http://www.w3.org/1999/xlink">
    <!-- Generator: Sketch 64 (93537) - https://sketch.com -->
    <title>Edit Copy</title>
    <desc>Created with Sketch.</desc>
    <defs>
        <path d="M16.699,6.62387506 L15.305,8.01987506 L11.97,4.67887506 L13.363,3.28287506 C13.8,2.84687506 14.56,2.84587506 14.997,3.28287506 L16.699,4.98687506 C17.15,5.43787506 17.15,6.17287506 16.699,6.62387506 L16.699,6.62387506 Z M8.973,14.3598751 L7.645,13.0298751 L11.155,9.51687506 L10.474,8.83487506 L6.965,12.3488751 L5.637,11.0198751 L11.289,5.36087506 L14.625,8.70187506 L8.973,14.3598751 Z M4.426,15.5738751 L5.253,11.9988751 L7.995,14.7438751 L4.426,15.5738751 Z M17.381,4.30587506 L15.678,2.60187506 C14.878,1.79887506 13.481,1.79987506 12.682,2.60187506 L4.512,10.7818751 L3,16.9998751 L9.21,15.4858751 L17.381,7.30587506 C18.206,6.47787506 18.206,5.13287506 17.381,4.30587506 L17.381,4.30587506 Z" id="path-1"></path>
    </defs>
    <g id="interactive-vertical" stroke="none" stroke-width="1" fill="none" fill-rule="evenodd">
        <g id="App-Copy-4" transform="translate(-776.000000, -386.000000)">
            <g id="Group" transform="translate(707.000000, 218.000000)">
                <g id="Foundations-/-1.-Icons-/-1.-General-/-Light-/-Edit" transform="translate(66.000000, 166.000000)">
                    <mask id="mask-2" fill="white">
                        <use xlink:href="#path-1"></use>
                    </mask>
                    <use id="Mask" fill="#000000" fill-rule="evenodd" xlink:href="#path-1"></use>
                    <g id="Foundations-/-3.-Colors-/-01-Primary-/-D6" mask="url(#mask-2)" fill="#FFFFFF" fill-rule="evenodd">
                        <rect id="D6" x="0" y="0" width="20" height="20"></rect>
                    </g>
                </g>
            </g>
        </g>
    </g>
</svg>