<?xml version="1.0" encoding="UTF-8"?>
<svg width="11px" height="14px" viewBox="0 0 11 14" version="1.1" xmlns="http://www.w3.org/2000/svg" xmlns:xlink="http://www.w3.org/1999/xlink">
    <!-- Generator: Sketch 64 (93537) - https://sketch.com -->
    <title>Color Copy 2</title>
    <desc>Created with Sketch.</desc>
    <g id="Symbols" stroke="none" stroke-width="1" fill="none" fill-rule="evenodd">
        <path d="M1.7,8.45448156 C1.7,10.5352165 3.61939144,12.3181179 5.7,12.3181179 C7.78060856,12.3181179 9.7,10.5352165 9.7,8.45448156 C9.7,6.6968581 8.37674108,4.37769425 5.7,1.54128491 C3.02325892,4.37769425 1.7,6.6968581 1.7,8.45448156 Z M10.7,8.45448156 C10.7,11.1046554 8.31708589,13.3181179 5.7,13.3181179 C3.08291411,13.3181179 0.7,11.1046554 0.7,8.45448156 C0.7,6.29259428 2.37777896,3.31811793 5.7,0.1 C9.04852814,3.31811793 10.7,6.29259428 10.7,8.45448156 Z M6.7,6.31811793 C7.8045695,6.31811793 8.7,7.21354843 8.7,8.31811793 C8.7,9.42268743 7.8045695,10.3181179 6.7,10.3181179 L6.7,6.31811793 Z" id="Color-Copy-2" fill="#FFFFFF"></path>
    </g>
</svg>