<?xml version="1.0" encoding="UTF-8"?>
<svg width="14px" height="14px" viewBox="0 0 14 14" version="1.1" xmlns="http://www.w3.org/2000/svg" xmlns:xlink="http://www.w3.org/1999/xlink">
    <!-- Generator: Sketch 64 (93537) - https://sketch.com -->
    <title>Icon</title>
    <desc>Created with Sketch.</desc>
    <defs>
        <path d="M9,12 L12.25,11.917 C11.228,13.728 8.877,14.881 6.778,14.881 C3.601,14.881 1.016,12 1.016,9 L0.016,9 C0.016,13 3.049,15.881 6.778,15.881 C10.833,15.881 13,12.667 13,12.667 L13,16 L14,16 L14,11 L9,11 L9,12 Z M5,6 L1.758,6.083 C2.781,4.272 5.135,3.119 7.234,3.119 C10.412,3.119 13,6 13,9 L14,9 C14,5 10.959,2.119 7.23,2.119 C3.175,2.119 1,5.333 1,5.333 L1,2 L0,2 L0,7 L5,7 L5,6 Z" id="path-1"></path>
    </defs>
    <g id="interactive-vertical" stroke="none" stroke-width="1" fill="none" fill-rule="evenodd">
        <g id="App-Copy-12" transform="translate(-650.000000, -253.000000)">
            <g id="Foundations-/-1.-Icons-/-Button-Icons-/-White-/-General-/-Change" transform="translate(650.000000, 251.000000)">
                <mask id="mask-2" fill="white">
                    <use xlink:href="#path-1"></use>
                </mask>
                <use id="Mask" fill="#000000" fill-rule="evenodd" xlink:href="#path-1"></use>
                <g id="Foundations-/-3.-Colors-/-04-Icons-/-Button-Icons-/-D6" mask="url(#mask-2)" fill="#FFFFFF" fill-rule="evenodd">
                    <rect id="D6" x="0" y="0" width="17" height="18"></rect>
                </g>
            </g>
        </g>
    </g>
</svg>