<?xml version="1.0" encoding="UTF-8"?>
<svg width="27px" height="23px" viewBox="0 0 27 23" version="1.1" xmlns="http://www.w3.org/2000/svg" xmlns:xlink="http://www.w3.org/1999/xlink">
    <!-- Generator: Sketch 64 (93537) - https://sketch.com -->
    <title>leftBar_background_icon</title>
    <desc>Created with Sketch.</desc>
    <defs>
        <path d="M10.2235978,17.112007 C10.1884205,17.7026928 9.85863311,18.3138988 9.29872742,18.8312986 C8.12321861,19.9173983 6.37754405,20.5623159 4.92354812,20.8232144 C5.3881819,19.9027411 5.54061696,19.0672798 5.42922211,18.1438751 C5.31782726,17.2424562 5.25040406,16.6459075 6.09172832,15.869075 C6.71759149,15.2886492 7.43286368,15.1669943 7.92241473,15.1669943 C8.0689869,15.1669943 8.21555907,15.1831172 8.36066552,15.2051031 C7.92534618,16.2208482 7.61314745,17.0548439 7.46510956,17.5619836 C8.03967247,17.4198086 8.99239158,17.1149384 10.1576403,16.6840163 C10.1869548,16.8247255 10.2338579,16.9595719 10.2235978,17.112007 M25.2296567,1.15176332 C23.7155661,-0.198166378 21.1842648,-1.37074374 15.563222,3.82230827 C12.9557031,6.22902331 10.538728,10.5045335 9.01291168,13.7555043 C8.65820703,13.6719581 8.29617377,13.6133293 7.92241473,13.6133293 C6.86123221,13.6133293 5.76926954,13.9680339 4.90156229,14.7697837 C1.59929128,17.8199506 6.7117286,19.4894076 0.5,22.3930023 C0.5,22.3930023 1.2695039,22.5 2.4244926,22.5 C4.59082929,22.5 8.11735572,22.1203781 10.4888934,19.9291241 C11.7582084,18.7565468 12.1422275,17.2966879 11.7479484,16.0669474 C15.2466261,14.6554574 19.7742405,12.4524777 22.3407192,10.0824057 C27.9617619,4.88935367 26.6909812,2.55152755 25.2296567,1.15176332" id="path-1"></path>
    </defs>
    <g id="Page-1" stroke="none" stroke-width="1" fill="none" fill-rule="evenodd">
        <mask id="mask-2" fill="white">
            <use xlink:href="#path-1"></use>
        </mask>
        <use id="leftBar_background_icon" fill="#2D4150" xlink:href="#path-1"></use>
    </g>
</svg>