<?xml version="1.0" encoding="UTF-8"?>
<svg width="96px" height="596px" viewBox="0 0 96 596" version="1.1" xmlns="http://www.w3.org/2000/svg" xmlns:xlink="http://www.w3.org/1999/xlink">
    <!-- Generator: Sketch 63.1 (92452) - https://sketch.com -->
    <title>00 Stage &amp; Frame / 5. Toolbar</title>
    <desc>Created with Sketch.</desc>
    <defs>
        <rect id="path-1" x="0" y="0" width="96" height="596" rx="8"></rect>
        <filter x="-15.6%" y="-2.5%" width="131.2%" height="105.0%" filterUnits="objectBoundingBox" id="filter-2">
            <feOffset dx="0" dy="0" in="SourceAlpha" result="shadowOffsetOuter1"></feOffset>
            <feGaussianBlur stdDeviation="5" in="shadowOffsetOuter1" result="shadowBlurOuter1"></feGaussianBlur>
            <feColorMatrix values="0 0 0 0 0.0862745098   0 0 0 0 0.176470588   0 0 0 0 0.239215686  0 0 0 0.54 0" type="matrix" in="shadowBlurOuter1"></feColorMatrix>
        </filter>
        <circle id="path-3" cx="9" cy="9" r="8"></circle>
        <filter x="-8.4%" y="-8.4%" width="129.4%" height="133.8%" filterUnits="objectBoundingBox" id="filter-4">
            <feOffset dx="1" dy="1.7" in="SourceAlpha" result="shadowOffsetOuter1"></feOffset>
            <feGaussianBlur stdDeviation="0.5" in="shadowOffsetOuter1" result="shadowBlurOuter1"></feGaussianBlur>
            <feColorMatrix values="0 0 0 0 0.44313726   0 0 0 0 0.25882354   0 0 0 0 0.14901961  0 0 0 0.47 0" type="matrix" in="shadowBlurOuter1"></feColorMatrix>
        </filter>
        <path d="M9,14.2857143 L3,14.2857143 C1.35,14.2857143 0,13.0009524 0,11.4285714 L0,4.76190476 L2,4.76190476 L2,11.4285714 C2,11.952381 2.45,12.3809524 3,12.3809524 L9,12.3809524 L9,14.2857143 M11,11.4285714 L5,11.4285714 C3.9,11.4285714 3,10.5704762 3,9.52380952 L3,1.9047619 C3,0.857142857 3.9,0 5,0 L11,0 C12.1,0 13,0.852380952 13,1.9047619 L13,9.52380952 C13,10.5752381 12.1,11.4285714 11,11.4285714 L11,11.4285714 Z M5,4.76190476 L11,4.76190476 L11,3.80952381 L5,3.80952381 L5,4.76190476 Z M5,2.85714286 L11,2.85714286 L11,1.9047619 L5,1.9047619 L5,2.85714286 Z" id="path-5"></path>
        <path d="M3,1 L3,0 L4,0 L4,4 L0,4 L0,3 L1,3 L1,2 L2,2 L2,1 L3,1 Z" id="path-7"></path>
        <path d="M12,13.3333333 L5,13.3333333 C3.9,13.3333333 3,12.4752381 3,11.4285714 L3,8.57142857 L2,8.57142857 C0.9,8.57142857 0,7.71428571 0,6.66666667 L0,1.9047619 C0,0.852380952 0.9,0 2,0 L7,0 C8.1,0 9,0.852380952 9,1.9047619 L9,2.85714286 L12,2.85714286 C13.1,2.85714286 14,3.71428571 14,4.76190476 L14,11.4285714 C14,12.4752381 13.1,13.3333333 12,13.3333333 L12,13.3333333 Z M5,11.4285714 L12,11.4285714 L12,4.76190476 L5,4.76190476 L5,11.4285714 Z" id="path-9"></path>
        <path d="M3,1 L3,0 L4,0 L4,4 L0,4 L0,3 L1,3 L1,2 L2,2 L2,1 L3,1 Z" id="path-11"></path>
        <path d="M11,9.52380952 C12.1,9.52380952 13,10.3771429 13,11.4285714 C13,12.48 12.1,13.3333333 11,13.3333333 L6,13.3333333 C4.9,13.3333333 4,12.48 4,11.4285714 C4,10.3771429 4.9,9.52380952 6,9.52380952 L11,9.52380952 Z M15,4.76190476 C16.1,4.76190476 17,5.61428571 17,6.66666667 C17,7.71809524 16.1,8.57142857 15,8.57142857 L2,8.57142857 C0.9,8.57142857 0,7.71809524 0,6.66666667 C0,5.61428571 0.9,4.76190476 2,4.76190476 L15,4.76190476 Z M11,0 C12.1,0 13,0.852380952 13,1.9047619 C13,2.95619048 12.1,3.80952381 11,3.80952381 L6,3.80952381 C4.9,3.80952381 4,2.95619048 4,1.9047619 C4,0.852380952 4.9,0 6,0 L11,0 Z" id="path-13"></path>
        <path d="M3,1 L3,0 L4,0 L4,4 L0,4 L0,3 L1,3 L1,2 L2,2 L2,1 L3,1 Z" id="path-15"></path>
        <path d="M10,5.71428571 L2,5.71428571 C0.9,5.71428571 0,4.86095238 0,3.80952381 L0,1.9047619 C0,0.852380952 0.9,0 2,0 L10,0 C11.1,0 12,0.852380952 12,1.9047619 L12,3.80952381 C12,4.86095238 11.1,5.71428571 10,5.71428571" id="path-17"></path>
        <path d="M12,0 L12,14.2857143 L10,14.2857143 L10,0 L12,0 Z M7,0.952380952 C8.1,0.952380952 9,1.8047619 9,2.85714286 L9,4.76190476 C9,5.81333333 8.1,6.66666667 7,6.66666667 L2,6.66666667 C0.9,6.66666667 0,5.81333333 0,4.76190476 L0,2.85714286 C0,1.8047619 0.9,0.952380952 2,0.952380952 L7,0.952380952 Z" id="path-19"></path>
        <path d="M3,1 L3,0 L4,0 L4,4 L0,4 L0,3 L1,3 L1,2 L2,2 L2,1 L3,1 Z" id="path-21"></path>
        <path d="M4,7.61904762 L2,7.61904762 C0.9,7.61904762 0,6.76571429 0,5.71428571 L0,1.9047619 C0,0.852380952 0.9,0 2,0 L4,0 C5.1,0 6,0.852380952 6,1.9047619 L6,5.71428571 C6,6.76571429 5.1,7.61904762 4,7.61904762" id="path-23"></path>
        <path d="M4,0 C5.1,0 6,0.852380952 6,1.9047619 L6,11.4285714 C6,12.48 5.1,13.3333333 4,13.3333333 L2,13.3333333 C0.899,13.3333333 0,12.48 0,11.4285714 L0,1.9047619 C0,0.852380952 0.899,0 2,0 L4,0 Z M13,11.4285714 L13,13.3333333 L7,13.3333333 L7,11.4285714 L13,11.4285714 Z M13,0 L13,1.9047619 L7,1.9047619 L7,0 L13,0 Z" id="path-25"></path>
        <path d="M2,3.80952381 L2,11.4285714 C2,11.9533333 2.45,12.3809524 3,12.3809524 L10,12.3809524 L10,14.2857143 L3,14.2857143 C1.35,14.2857143 0,13.0038095 0,11.4285714 L0,3.80952381 L2,3.80952381 Z M9,0 L13,3.80952381 L13,9.52380952 C13,10.5704762 12.1,11.4285714 11,11.4285714 L5,11.4285714 C3.899,11.4285714 3,10.5752381 3,9.52380952 L3,1.9047619 C3,0.852380952 3.899,0 5,0 L9,0 Z M8,1.9047619 L5,1.9047619 L5,9.52380952 L11,9.52380952 L11,4.76190476 L8,4.76190476 L8,1.9047619 Z" id="path-27"></path>
        <path d="M12,14.2857143 L7,14.2857143 C5.899,14.2857143 5,13.427619 5,12.3809524 L5,9.52380952 C5,8.47619048 5.899,7.61904762 7,7.61904762 L12,7.61904762 C13.1,7.61904762 14,8.47142857 14,9.52380952 L14,12.3809524 C14,13.432381 13.1,14.2857143 12,14.2857143 L12,14.2857143 Z M4,13.3333333 L2,13.3333333 C0.9,13.3333333 0,12.4752381 0,11.4285714 L0,2.85714286 C0,1.80952381 0.9,0.952380952 2,0.952380952 L3,0.952380952 L3,0.468571429 C3,0.205714286 3.3,0 3.58,0 L7.58,0 C7.85,0 8,0.205714286 8,0.468571429 L8,0.952380952 L9,0.952380952 C10.1,0.952380952 11,1.8047619 11,2.85714286 L11,6.66666667 L6,6.66666667 C4.9,6.66666667 4,7.51904762 4,8.57142857 L4,13.3333333 L4,13.3333333 Z M4,1.9047619 L7,1.9047619 L7,0.952380952 L4,0.952380952 L4,1.9047619 Z M7,12.3809524 L12,12.3809524 L12,11.4285714 L7,11.4285714 L7,12.3809524 Z M7,10.4761905 L12,10.4761905 L12,9.52380952 L7,9.52380952 L7,10.4761905 Z" id="path-29"></path>
        <path d="M9,14.2857143 L4,14.2857143 C2.35,14.2857143 1,13.0009524 1,11.4285714 L1,3.80190476 C1,3.80190476 0,3.80952381 0,2.85714286 C0,1.9047619 1,1.9047619 1,1.9047619 L4,1.9047619 L4,0 L9,0 L9,1.9047619 L12,1.9047619 L12.02,1.9047619 C12.14,1.9047619 13,1.93904762 13,2.85333333 C13,3.76857143 12.14,3.80285714 12.02,3.80285714 C12.01,3.80285714 12,3.80190476 12,3.80190476 L12,11.4285714 C12,13.0066667 10.66,14.2857143 9,14.2857143 L9,14.2857143 Z M8,11.4285714 L9,11.4285714 L9,4.76190476 L8,4.76190476 L8,11.4285714 Z M4,11.4285714 L5,11.4285714 L5,4.76190476 L4,4.76190476 L4,11.4285714 Z M5,1.9047619 L8,1.9047619 L8,0.952380952 L5,0.952380952 L5,1.9047619 Z" id="path-31"></path>
        <path d="M2,4 L2,6 L0,6 L0,4 L2,4 Z M6,4 L6,6 L4,6 L4,4 L6,4 Z M10,4 L10,6 L8,6 L8,4 L10,4 Z M14,4 L14,6 L12,6 L12,4 L14,4 Z M2,0 L2,2 L0,2 L0,0 L2,0 Z M6,0 L6,2 L4,2 L4,0 L6,0 Z M10,0 L10,2 L8,2 L8,0 L10,0 Z M14,0 L14,2 L12,2 L12,0 L14,0 Z" id="path-33"></path>
        <path d="M7,6 L7,7 L6,7 L6,6 L7,6 Z M1,6 L1,7 L0,7 L0,6 L1,6 Z M6,5 L6,6 L5,6 L5,5 L6,5 Z M2,5 L2,6 L1,6 L1,5 L2,5 Z M5,4 L5,5 L4,5 L4,4 L5,4 Z M3,4 L3,5 L2,5 L2,4 L3,4 Z M4,3 L4,4 L3,4 L3,3 L4,3 Z M3,2 L3,3 L2,3 L2,2 L3,2 Z M5,2 L5,3 L4,3 L4,2 L5,2 Z M2,1 L2,2 L1,2 L1,1 L2,1 Z M6,1 L6,2 L5,2 L5,1 L6,1 Z M1,0 L1,1 L0,1 L0,0 L1,0 Z M7,0 L7,1 L6,1 L6,0 L7,0 Z" id="path-35"></path>
        <path d="M2.87579532,7.7969495 L2.87579532,9.17000008 L2.21608137,9.17000008 L2.21608137,7.7969495 L2.87579532,7.7969495 Z M2.60311832,0 C2.93476216,0 3.24281927,0.0524878061 3.53157814,0.156702726 C3.81890751,0.261678338 4.0719289,0.413816906 4.2935013,0.615400509 C4.51435895,0.816984113 4.68804312,1.06040582 4.81455381,1.3494691 C4.93892025,1.63929308 5.00181822,1.96182684 5.00181822,2.32163455 C5.00181822,2.79174273 4.90532702,3.18426024 4.7137741,3.51135816 C4.51936219,3.83845608 4.27420305,4.14197253 3.97472294,4.44320689 C3.72170156,4.71173147 3.52586015,4.89505844 3.38433971,5.037308 L3.2840514,5.1378502 C3.19064255,5.23309132 3.11773808,5.31667245 3.06413186,5.42678274 C2.99408639,5.57359646 2.94548341,5.65879405 2.92189667,5.86113835 C2.89902468,6.06120057 2.88258544,6.56249715 2.87543794,6.56249715 L2.87543794,6.56249715 L2.21500924,6.56249715 C2.21500924,5.35527761 2.50162386,5.04643632 2.85113645,4.64174772 C3.02196162,4.44548897 3.23710128,4.23097359 3.48940791,3.98755188 C3.71098031,3.76999373 3.89324148,3.52657202 4.04047991,3.25804744 C4.18557409,2.99028356 4.25776381,2.69209197 4.25776381,2.36499405 C4.25776381,2.11396541 4.21344933,1.88347548 4.12267612,1.67352425 C4.03190291,1.46357303 3.90968072,1.2855709 3.75529479,1.13875719 C3.60162361,0.992704159 3.42222144,0.877078847 3.21780304,0.793402635 C3.01266988,0.709726422 2.79610073,0.667888316 2.56738083,0.667888316 C2.24431398,0.667888316 1.96270261,0.727222357 1.72254672,0.845129748 C1.48239083,0.962276446 1.28440517,1.12506471 1.12573074,1.33045178 C0.969200559,1.53583885 0.850552113,1.78002125 0.771214899,2.05691345 C0.692592435,2.33380564 0.657569701,2.96898416 0.664717197,2.96898416 L0.664717197,2.96898416 L0,2.96898416 C0,1.67732772 0.398830318,1.06725206 0.623976466,0.811659263 C0.849122614,0.556066468 1.12787499,0.356764943 1.46380733,0.213754689 C1.79759543,0.0715051272 2.17855701,0 2.60311832,0 Z" id="path-37"></path>
        <rect id="path-39" x="0" y="0" width="96" height="1"></rect>
        <rect id="path-41" x="0" y="0" width="96" height="1"></rect>
        <rect id="path-43" x="0" y="0" width="96" height="1"></rect>
        <rect id="path-45" x="0" y="0" width="96" height="1"></rect>
        <rect id="path-47" x="0" y="0" width="96" height="1"></rect>
        <rect id="path-49" x="0" y="0" width="96" height="1"></rect>
        <rect id="path-51" x="0" y="0" width="96" height="1"></rect>
        <path d="M14,11.4285714 L0,11.4285714 L8.59,0 L9.42,0.451428571 L6.29,4.64095238 C8.25,5.95714286 9.5,8.12095238 9.5,10.4761905 L14,10.4761905 L14,11.4285714 M5.72,5.40761905 L1.94,10.4761905 L8.5,10.4761905 C8.5,8.43238095 7.42,6.54761905 5.72,5.40761905" id="path-53"></path>
    </defs>
    <g id="00-Stage-&amp;-Frame-/-5.-Toolbar" stroke="none" stroke-width="1" fill="none" fill-rule="evenodd">
        <g id="Toolbar">
            <g id="BG">
                <use fill="black" fill-opacity="1" filter="url(#filter-2)" xlink:href="#path-1"></use>
                <use fill="#FFFFFF" fill-rule="evenodd" xlink:href="#path-1"></use>
            </g>
            <g id="03-Selections-/-Primitives-/-5.-Toggle-/-SOAP-Small-OFF" transform="translate(31.000000, 530.000000)">
                <rect id="Base" stroke="#FED8C1" stroke-width="1" fill="#FEE5D6" fill-rule="evenodd" x="0.5" y="0.5" width="33" height="17" rx="8.5"></rect>
                <g id="Button">
                    <use fill="black" fill-opacity="1" filter="url(#filter-4)" xlink:href="#path-3"></use>
                    <use fill="#FFFFFF" fill-rule="evenodd" xlink:href="#path-3"></use>
                </g>
                <rect id="Line" fill="#FC975C" fill-rule="evenodd" x="5" y="8" width="8" height="2" rx="1"></rect>
            </g>
            <g id="00-Stage-&amp;-Frame-/-Primitives-/-Toolbar-/-Thumbnails-/-Default" transform="translate(12.000000, 42.000000)">
                <rect id="Thumb" fill="#FFFFFF" x="0" y="0" width="33" height="33" rx="6"></rect>
                <g id="Foundations-/-1.-Icons-/-Toolbar-/-Copy-/-Default" transform="translate(6.000000, 6.000000)" stroke-width="1">
                    <g id="Color" transform="translate(4.000000, 2.857143)">
                        <mask id="mask-6" fill="white">
                            <use xlink:href="#path-5"></use>
                        </mask>
                        <use id="Mask" fill="#000000" xlink:href="#path-5"></use>
                        <g id="Foundations-/-3.-Colors-/-02-Extra-/-E4" mask="url(#mask-6)" fill="#2D4150">
                            <g transform="translate(-4.000000, -2.857143)" id="E4">
                                <rect x="0" y="0" width="22" height="19.047619"></rect>
                            </g>
                        </g>
                    </g>
                </g>
            </g>
            <g id="00-Stage-&amp;-Frame-/-Primitives-/-Toolbar-/-Thumbnails-/-Default" transform="translate(12.000000, 139.000000)">
                <rect id="Thumb" fill="#FFFFFF" fill-rule="evenodd" x="0" y="0" width="33" height="33" rx="6"></rect>
                <g id="Foundations-/-1.-Icons-/-Toolbar-/-More-Arrow-/-Default" transform="translate(26.000000, 25.000000)">
                    <mask id="mask-8" fill="white">
                        <use xlink:href="#path-7"></use>
                    </mask>
                    <use id="Combined-Shape" fill="#3899EC" fill-rule="evenodd" xlink:href="#path-7"></use>
                    <g id="Foundations-/-3.-Colors-/-04-Icons-/-Arrows-/-B1" mask="url(#mask-8)" fill="#3899EC" fill-rule="evenodd">
                        <rect id="B1" x="0" y="0" width="4" height="4"></rect>
                    </g>
                </g>
                <g id="Foundations-/-1.-Icons-/-Toolbar-/-Move-Backward-/-Default" transform="translate(6.000000, 6.000000)" fill-rule="evenodd" stroke-width="1">
                    <g id="Color" transform="translate(4.000000, 2.857143)">
                        <mask id="mask-10" fill="white">
                            <use xlink:href="#path-9"></use>
                        </mask>
                        <use id="Mask" fill="#000000" xlink:href="#path-9"></use>
                        <g id="Foundations-/-3.-Colors-/-02-Extra-/-E4" mask="url(#mask-10)" fill="#2D4150">
                            <g transform="translate(-4.000000, -2.857143)" id="E4">
                                <rect x="0" y="0" width="22" height="19.047619"></rect>
                            </g>
                        </g>
                    </g>
                </g>
            </g>
            <g id="00-Stage-&amp;-Frame-/-Primitives-/-Toolbar-/-Thumbnails-/-Default" transform="translate(12.000000, 184.000000)">
                <rect id="Thumb" fill="#FFFFFF" fill-rule="evenodd" x="0" y="0" width="33" height="33" rx="6"></rect>
                <g id="Foundations-/-1.-Icons-/-Toolbar-/-More-Arrow-/-Default" transform="translate(26.000000, 25.000000)">
                    <mask id="mask-12" fill="white">
                        <use xlink:href="#path-11"></use>
                    </mask>
                    <use id="Combined-Shape" fill="#3899EC" fill-rule="evenodd" xlink:href="#path-11"></use>
                    <g id="Foundations-/-3.-Colors-/-04-Icons-/-Arrows-/-B1" mask="url(#mask-12)" fill="#3899EC" fill-rule="evenodd">
                        <rect id="B1" x="0" y="0" width="4" height="4"></rect>
                    </g>
                </g>
                <g id="Foundations-/-1.-Icons-/-Toolbar-/-Vertical-Distribute-Center-/-Default" transform="translate(6.000000, 6.000000)" fill-rule="evenodd" stroke-width="1">
                    <g id="Color" transform="translate(2.000000, 2.857143)">
                        <mask id="mask-14" fill="white">
                            <use xlink:href="#path-13"></use>
                        </mask>
                        <use id="Combined-Shape" fill="#20394A" xlink:href="#path-13"></use>
                        <g id="Foundations-/-3.-Colors-/-02-Extra-/-E4" mask="url(#mask-14)" fill="#2D4150">
                            <g transform="translate(-2.000000, -2.857143)" id="E4">
                                <rect x="0" y="0" width="22" height="19.047619"></rect>
                            </g>
                        </g>
                    </g>
                </g>
            </g>
            <g id="00-Stage-&amp;-Frame-/-Primitives-/-Toolbar-/-Thumbnails-/-Default" transform="translate(51.000000, 139.000000)">
                <rect id="Thumb" fill="#FFFFFF" fill-rule="evenodd" x="0" y="0" width="33" height="33" rx="6"></rect>
                <g id="Foundations-/-1.-Icons-/-Toolbar-/-More-Arrow-/-Default" transform="translate(26.000000, 25.000000)">
                    <mask id="mask-16" fill="white">
                        <use xlink:href="#path-15"></use>
                    </mask>
                    <use id="Combined-Shape" fill="#3899EC" fill-rule="evenodd" xlink:href="#path-15"></use>
                    <g id="Foundations-/-3.-Colors-/-04-Icons-/-Arrows-/-B1" mask="url(#mask-16)" fill="#3899EC" fill-rule="evenodd">
                        <rect id="B1" x="0" y="0" width="4" height="4"></rect>
                    </g>
                </g>
                <g id="Foundations-/-1.-Icons-/-Toolbar-/-Align-Right-/-Default" transform="translate(6.000000, 6.000000)" fill-rule="evenodd" stroke-width="1">
                    <g id="Secondery-Color" transform="translate(3.000000, 10.476190)">
                        <mask id="mask-18" fill="white">
                            <use xlink:href="#path-17"></use>
                        </mask>
                        <use id="Mask" fill="#67869A" xlink:href="#path-17"></use>
                        <g id="Foundations-/-3.-Colors-/-01-Primary-/-D3" mask="url(#mask-18)" fill="#7A92A5">
                            <g transform="translate(-3.000000, -10.476190)" id="D3">
                                <rect x="0" y="0" width="22" height="19.047619"></rect>
                            </g>
                        </g>
                    </g>
                    <g id="Main-Color" transform="translate(6.000000, 2.857143)">
                        <mask id="mask-20" fill="white">
                            <use xlink:href="#path-19"></use>
                        </mask>
                        <use id="Mask" fill="#000000" xlink:href="#path-19"></use>
                        <g id="Foundations-/-3.-Colors-/-02-Extra-/-E4" mask="url(#mask-20)" fill="#2D4150">
                            <g transform="translate(-6.000000, -2.857143)" id="E4">
                                <rect x="0" y="0" width="22" height="19.047619"></rect>
                            </g>
                        </g>
                    </g>
                </g>
            </g>
            <g id="00-Stage-&amp;-Frame-/-Primitives-/-Toolbar-/-Thumbnails-/-Default" transform="translate(51.000000, 184.000000)">
                <rect id="Thumb" fill="#FFFFFF" fill-rule="evenodd" x="0" y="0" width="33" height="33" rx="6"></rect>
                <g id="Foundations-/-1.-Icons-/-Toolbar-/-More-Arrow-/-Default" transform="translate(26.000000, 25.000000)">
                    <mask id="mask-22" fill="white">
                        <use xlink:href="#path-21"></use>
                    </mask>
                    <use id="Combined-Shape" fill="#3899EC" fill-rule="evenodd" xlink:href="#path-21"></use>
                    <g id="Foundations-/-3.-Colors-/-04-Icons-/-Arrows-/-B1" mask="url(#mask-22)" fill="#3899EC" fill-rule="evenodd">
                        <rect id="B1" x="0" y="0" width="4" height="4"></rect>
                    </g>
                </g>
                <g id="Foundations-/-1.-Icons-/-Toolbar-/-Match-Height-/-Default" transform="translate(6.000000, 6.000000)" fill-rule="evenodd" stroke-width="1">
                    <g id="Secondery-Color" transform="translate(11.000000, 5.714286)">
                        <mask id="mask-24" fill="white">
                            <use xlink:href="#path-23"></use>
                        </mask>
                        <use id="Mask" fill="#67869A" xlink:href="#path-23"></use>
                        <g id="Foundations-/-3.-Colors-/-01-Primary-/-D3" mask="url(#mask-24)" fill="#7A92A5">
                            <g transform="translate(-11.000000, -5.714286)" id="D3">
                                <rect x="0" y="0" width="22" height="19.047619"></rect>
                            </g>
                        </g>
                    </g>
                    <g id="Main-Color" transform="translate(4.000000, 2.857143)">
                        <mask id="mask-26" fill="white">
                            <use xlink:href="#path-25"></use>
                        </mask>
                        <use id="Mask" fill="#000000" xlink:href="#path-25"></use>
                        <g id="Foundations-/-3.-Colors-/-02-Extra-/-E4" mask="url(#mask-26)" fill="#2D4150">
                            <g transform="translate(-4.000000, -2.857143)" id="E4">
                                <rect x="0" y="0" width="22" height="19.047619"></rect>
                            </g>
                        </g>
                    </g>
                </g>
            </g>
            <g id="00-Stage-&amp;-Frame-/-Primitives-/-Toolbar-/-Thumbnails-/-Default" transform="translate(12.000000, 81.000000)">
                <rect id="Thumb" fill="#FFFFFF" x="0" y="0" width="33" height="33" rx="6"></rect>
                <g id="Foundations-/-1.-Icons-/-Toolbar-/-Duplicate-/-Default" transform="translate(6.000000, 6.000000)" stroke-width="1">
                    <g id="Color" transform="translate(4.000000, 2.857143)">
                        <mask id="mask-28" fill="white">
                            <use xlink:href="#path-27"></use>
                        </mask>
                        <use id="Mask" fill="#000000" xlink:href="#path-27"></use>
                        <g id="Foundations-/-3.-Colors-/-02-Extra-/-E4" mask="url(#mask-28)" fill="#2D4150">
                            <g transform="translate(-4.000000, -2.857143)" id="E4">
                                <rect x="0" y="0" width="22" height="19.047619"></rect>
                            </g>
                        </g>
                    </g>
                </g>
            </g>
            <g id="00-Stage-&amp;-Frame-/-Primitives-/-Toolbar-/-Thumbnails-/-Default" transform="translate(51.000000, 42.000000)">
                <rect id="Thumb" fill="#FFFFFF" x="0" y="0" width="33" height="33" rx="6"></rect>
                <g id="Foundations-/-1.-Icons-/-Toolbar-/-Paste-/-Default" transform="translate(6.000000, 6.000000)" stroke-width="1">
                    <g id="Color" transform="translate(5.000000, 2.857143)">
                        <mask id="mask-30" fill="white">
                            <use xlink:href="#path-29"></use>
                        </mask>
                        <use id="Mask" fill="#000000" xlink:href="#path-29"></use>
                        <g id="Foundations-/-3.-Colors-/-02-Extra-/-E4" mask="url(#mask-30)" fill="#2D4150">
                            <g transform="translate(-5.000000, -2.857143)" id="E4">
                                <rect x="0" y="0" width="22" height="19.047619"></rect>
                            </g>
                        </g>
                    </g>
                </g>
            </g>
            <g id="00-Stage-&amp;-Frame-/-Primitives-/-Toolbar-/-Thumbnails-/-Default" transform="translate(51.000000, 81.000000)">
                <rect id="Thumb" fill="#FFFFFF" x="0" y="0" width="33" height="33" rx="6"></rect>
                <g id="Foundations-/-1.-Icons-/-Toolbar-/-Delete-/-Default" transform="translate(6.000000, 6.000000)" stroke-width="1">
                    <g id="Color" transform="translate(5.000000, 2.857143)">
                        <mask id="mask-32" fill="white">
                            <use xlink:href="#path-31"></use>
                        </mask>
                        <use id="Mask" fill="#000000" xlink:href="#path-31"></use>
                        <g id="Foundations-/-3.-Colors-/-02-Extra-/-E4" mask="url(#mask-32)" fill="#2D4150">
                            <g transform="translate(-4.000000, -1.904762)" id="E4">
                                <rect x="0" y="0" width="22" height="19.047619"></rect>
                            </g>
                        </g>
                    </g>
                </g>
            </g>
            <g id="Foundations-/-1.-Icons-/-Header-/-Drag-Handles" transform="translate(42.000000, 14.000000)">
                <g id="Drag-Handle">
                    <mask id="mask-34" fill="white">
                        <use xlink:href="#path-33"></use>
                    </mask>
                    <use fill="#2B5672" xlink:href="#path-33"></use>
                    <g id="Foundations-/-3.-Colors-/-01-Primary-/-D2" mask="url(#mask-34)" fill="#2B5672">
                        <rect id="D2" x="0" y="0" width="14" height="6"></rect>
                    </g>
                </g>
            </g>
            <g id="Foundations-/-1.-Icons-/-Header-/-close-icon-8" transform="translate(75.000000, 14.000000)">
                <g id="Close-Icon">
                    <mask id="mask-36" fill="white">
                        <use xlink:href="#path-35"></use>
                    </mask>
                    <use id="Close" fill="#162D3D" xlink:href="#path-35"></use>
                    <g id="Foundations-/-3.-Colors-/-01-Primary-/-D2" mask="url(#mask-36)" fill="#2B5672">
                        <rect id="D2" x="0" y="0" width="7" height="7"></rect>
                    </g>
                </g>
            </g>
            <g id="Foundations-/-1.-Icons-/-Header-/-help-icon" transform="translate(14.000000, 12.000000)">
                <g id="Help-Icon">
                    <mask id="mask-38" fill="white">
                        <use xlink:href="#path-37"></use>
                    </mask>
                    <use id="Help" fill="#162D3D" xlink:href="#path-37"></use>
                    <g id="Foundations-/-3.-Colors-/-01-Primary-/-D2" mask="url(#mask-38)" fill="#2B5672">
                        <rect id="D2" x="0" y="0" width="5.00181822" height="9.17000008"></rect>
                    </g>
                </g>
            </g>
            <g id="01-Panel-Structure-/-3.-Dividers-/-1.-C74A---Long-Divider" transform="translate(48.000000, 30.500000) scale(1, -1) translate(-48.000000, -30.500000) translate(0.000000, 30.000000)">
                <mask id="mask-40" fill="white">
                    <use xlink:href="#path-39"></use>
                </mask>
                <use id="Mask" fill="#D9E1E8" fill-rule="evenodd" xlink:href="#path-39"></use>
            </g>
            <g id="01-Panel-Structure-/-3.-Dividers-/-1.-C74A---Long-Divider" transform="translate(48.000000, 126.500000) scale(1, -1) translate(-48.000000, -126.500000) translate(0.000000, 126.000000)">
                <mask id="mask-42" fill="white">
                    <use xlink:href="#path-41"></use>
                </mask>
                <use id="Mask" fill="#D9E1E8" fill-rule="evenodd" xlink:href="#path-41"></use>
            </g>
            <g id="01-Panel-Structure-/-3.-Dividers-/-1.-C74A---Long-Divider" transform="translate(48.000000, 229.500000) scale(1, -1) translate(-48.000000, -229.500000) translate(0.000000, 229.000000)">
                <mask id="mask-44" fill="white">
                    <use xlink:href="#path-43"></use>
                </mask>
                <use id="Mask" fill="#D9E1E8" fill-rule="evenodd" xlink:href="#path-43"></use>
            </g>
            <g id="01-Panel-Structure-/-3.-Dividers-/-1.-C74A---Long-Divider" transform="translate(48.000000, 278.500000) scale(1, -1) translate(-48.000000, -278.500000) translate(0.000000, 278.000000)">
                <mask id="mask-46" fill="white">
                    <use xlink:href="#path-45"></use>
                </mask>
                <use id="Mask" fill="#D9E1E8" fill-rule="evenodd" xlink:href="#path-45"></use>
            </g>
            <g id="01-Panel-Structure-/-3.-Dividers-/-1.-C74A---Long-Divider" transform="translate(48.000000, 378.500000) scale(1, -1) translate(-48.000000, -378.500000) translate(0.000000, 378.000000)">
                <mask id="mask-48" fill="white">
                    <use xlink:href="#path-47"></use>
                </mask>
                <use id="Mask" fill="#D9E1E8" fill-rule="evenodd" xlink:href="#path-47"></use>
            </g>
            <g id="01-Panel-Structure-/-3.-Dividers-/-1.-C74A---Long-Divider" transform="translate(48.000000, 478.500000) scale(1, -1) translate(-48.000000, -478.500000) translate(0.000000, 478.000000)">
                <mask id="mask-50" fill="white">
                    <use xlink:href="#path-49"></use>
                </mask>
                <use id="Mask" fill="#D9E1E8" fill-rule="evenodd" xlink:href="#path-49"></use>
            </g>
            <g id="01-Panel-Structure-/-3.-Dividers-/-1.-C74A---Long-Divider" transform="translate(48.000000, 560.500000) scale(1, -1) translate(-48.000000, -560.500000) translate(0.000000, 560.000000)">
                <mask id="mask-52" fill="white">
                    <use xlink:href="#path-51"></use>
                </mask>
                <use id="Mask" fill="#D9E1E8" fill-rule="evenodd" xlink:href="#path-51"></use>
            </g>
            <g id="04-Buttons-/-Primitives-/-2.-Secondary-/-XSmall-/-With-Icon-/-Default-" transform="translate(17.500000, 569.000000)">
                <rect id="BG" fill="#EAF7FF" fill-rule="evenodd" x="0" y="0" width="61" height="21" rx="10.5"></rect>
                <text id="Label" font-family="HelveticaNeueW01-45Light, Helvetica Neue W01 45 Light" font-size="13" font-weight="normal" line-spacing="18" fill="#3899EC">
                    <tspan x="12" y="14">Layers</tspan>
                </text>
            </g>
            <text id="Size" font-family="HelveticaNeueW01-55Roma, Helvetica Neue W01 55 Roman" font-size="12" font-weight="normal" line-spacing="14" fill="#2B5672">
                <tspan x="38.178" y="301">Size</tspan>
            </text>
            <text id="Position" font-family="HelveticaNeueW01-55Roma, Helvetica Neue W01 55 Roman" font-size="12" font-weight="normal" line-spacing="14" fill="#2B5672">
                <tspan x="28.334" y="401">Position</tspan>
            </text>
            <text id="Show-on-All-Pages" font-family="HelveticaNeueW01-55Roma, Helvetica Neue W01 55 Roman" font-size="12" font-weight="normal" line-spacing="14" fill="#2B5672">
                <tspan x="16.116" y="501">Show on All </tspan>
                <tspan x="31.224" y="515">Pages</tspan>
            </text>
            <text id="W:" font-family="HelveticaNeueW01-55Roman, Helvetica Neue W01 55 Roman" font-size="12" font-weight="normal" line-spacing="14" fill="#2B5672">
                <tspan x="18.552" y="328">W:</tspan>
            </text>
            <text id="X:" font-family="HelveticaNeueW01-55Roman, Helvetica Neue W01 55 Roman" font-size="12" font-weight="normal" line-spacing="14" fill="#2B5672">
                <tspan x="22.332" y="428">X:</tspan>
            </text>
            <text id="H:" font-family="HelveticaNeueW01-55Roman, Helvetica Neue W01 55 Roman" font-size="12" font-weight="normal" line-spacing="14" fill="#2B5672">
                <tspan x="21" y="358">H:</tspan>
            </text>
            <text id="Y:" font-family="HelveticaNeueW01-55Roman, Helvetica Neue W01 55 Roman" font-size="12" font-weight="normal" line-spacing="14" fill="#2B5672">
                <tspan x="21.888" y="458">Y:</tspan>
            </text>
            <g id="02-Inputs-/-Primitives-/-Text-Inputs-/-Numeric-Input-/-Small-/-Default" transform="translate(36.000000, 312.000000)">
                <rect id="Input" x="0" y="0" width="48" height="24" rx="8"></rect>
                <text id="Number" font-family="HelveticaNeueW01-55Roman, Helvetica Neue W01 55 Roman" font-size="12" font-weight="normal" line-spacing="24" fill="#162D3D">
                    <tspan x="18.984" y="11">120</tspan>
                </text>
            </g>
            <g id="02-Inputs-/-Primitives-/-Text-Inputs-/-Numeric-Input-/-Small-/-Default" transform="translate(36.000000, 412.000000)">
                <rect id="Input" x="0" y="0" width="48" height="24" rx="8"></rect>
                <text id="Number" font-family="HelveticaNeueW01-55Roman, Helvetica Neue W01 55 Roman" font-size="12" font-weight="normal" line-spacing="24" fill="#162D3D">
                    <tspan x="25.656" y="11">20</tspan>
                </text>
            </g>
            <g id="02-Inputs-/-Primitives-/-Text-Inputs-/-Numeric-Input-/-Small-/-Default" transform="translate(36.000000, 342.000000)">
                <rect id="Input" x="0" y="0" width="48" height="24" rx="8"></rect>
                <text id="Number" font-family="HelveticaNeueW01-55Roman, Helvetica Neue W01 55 Roman" font-size="12" font-weight="normal" line-spacing="24" fill="#162D3D">
                    <tspan x="25.656" y="11">50</tspan>
                </text>
            </g>
            <g id="02-Inputs-/-Primitives-/-Text-Inputs-/-Numeric-Input-/-Small-/-Default" transform="translate(36.000000, 442.000000)">
                <rect id="Input" x="0" y="0" width="48" height="24" rx="8"></rect>
                <text id="Number" font-family="HelveticaNeueW01-55Roman, Helvetica Neue W01 55 Roman" font-size="12" font-weight="normal" line-spacing="24" fill="#162D3D">
                    <tspan x="18.984" y="11">164</tspan>
                </text>
            </g>
            <g id="Foundations-/-1.-Icons-/-Toolbar-/-Hidden-/-Default" transform="translate(12.000000, 244.000000)">
                <g id="Color" transform="translate(4.000000, 3.809524)">
                    <mask id="mask-54" fill="white">
                        <use xlink:href="#path-53"></use>
                    </mask>
                    <use id="Mask" fill="#000000" xlink:href="#path-53"></use>
                    <g id="Foundations-/-3.-Colors-/-02-Extra-/-E4" mask="url(#mask-54)" fill="#2D4150">
                        <g transform="translate(-4.000000, -3.809524)" id="E4">
                            <rect x="0" y="0" width="22" height="19.047619"></rect>
                        </g>
                    </g>
                </g>
            </g>
            <g id="02-Inputs-/-Primitives-/-Text-Inputs-/-Numeric-Units-Input-/-Small-/-Default" transform="translate(36.000000, 242.000000)">
                <rect id="Input" x="0" y="0" width="48" height="24" rx="8"></rect>
                <text id="Number" font-family="HelveticaNeueW01-55Roman, Helvetica Neue W01 55 Roman" font-size="12" font-weight="normal" line-spacing="24" fill="#162D3D">
                    <tspan x="24.328" y="11">0</tspan>
                </text>
                <g id="02-Inputs-/-Primitives-/-Text-Inputs-/-P02---Text-Units-/-Degrees-/-Small-/-Default" transform="translate(31.000000, 0.000000)" fill="#162D3D" font-family="HelveticaNeueW01-55Roman, Helvetica Neue W01 55 Roman" font-size="7" font-weight="normal" line-spacing="24">
                    <text id="o">
                        <tspan x="0.491" y="8">o</tspan>
                    </text>
                </g>
            </g>
        </g>
    </g>
</svg>