<?xml version="1.0" encoding="UTF-8"?>
<svg width="26px" height="26px" viewBox="0 0 26 26" version="1.1" xmlns="http://www.w3.org/2000/svg" xmlns:xlink="http://www.w3.org/1999/xlink">
    <title>Add_3px CR</title>
    <g id="Final" stroke="none" stroke-width="1" fill="none" fill-rule="evenodd">
        <g id="Add_3px-CR" fill-rule="nonzero">
            <rect id="Rectangle" fill="#FFFFFF" opacity="0" x="0" y="0" width="26" height="26"></rect>
            <path d="M13.25,4 C14.2164983,4 15,4.78350169 15,5.75 L15,11 L20.25,11 C21.2164983,11 22,11.7835017 22,12.75 L22,13.25 C22,14.2164983 21.2164983,15 20.25,15 L15,15 L15,20.25 C15,21.2164983 14.2164983,22 13.25,22 L12.75,22 C11.7835017,22 11,21.2164983 11,20.25 L11,15 L5.75,15 C4.78350169,15 4,14.2164983 4,13.25 L4,12.75 C4,11.7835017 4.78350169,11 5.75,11 L11,11 L11,5.75 C11,4.78350169 11.7835017,4 12.75,4 L13.25,4 Z" id="add" fill="#000000"></path>
        </g>
    </g>
</svg>