<?xml version="1.0" encoding="UTF-8"?>
<svg width="26px" height="27px" viewBox="0 0 26 27" version="1.1" xmlns="http://www.w3.org/2000/svg" xmlns:xlink="http://www.w3.org/1999/xlink">
    <title>Icon</title>
    <g id="Final" stroke="none" stroke-width="1" fill="none" fill-rule="evenodd">
        <g id="Icon" transform="translate(0.000000, 0.400000)" fill-rule="nonzero">
            <g id="App-Market_3-CR">
                <rect id="Rectangle" fill="#FFFFFF" opacity="0" x="0" y="0" width="26" height="26"></rect>
                <path d="M9.25,14 C10.7687831,14 12,15.2312169 12,16.75 L12,19.25 C12,20.7687831 10.7687831,22 9.25,22 L6.75,22 C5.23121694,22 4,20.7687831 4,19.25 L4,16.75 C4,15.2312169 5.23121694,14 6.75,14 L9.25,14 Z M19.25,14 C20.7687831,14 22,15.2312169 22,16.75 L22,19.25 C22,20.7687831 20.7687831,22 19.25,22 L16.75,22 C15.2312169,22 14,20.7687831 14,19.25 L14,16.75 C14,15.2312169 15.2312169,14 16.75,14 L19.25,14 Z M9.25,4 C10.7687831,4 12,5.23121694 12,6.75 L12,9.25 C12,10.7687831 10.7687831,12 9.25,12 L6.75,12 C5.23121694,12 4,10.7687831 4,9.25 L4,6.75 C4,5.23121694 5.23121694,4 6.75,4 L9.25,4 Z M19.25,4 C20.7687831,4 22,5.23121694 22,6.75 L22,9.25 C22,10.7687831 20.7687831,12 19.25,12 L16.75,12 C15.2312169,12 14,10.7687831 14,9.25 L14,6.75 C14,5.23121694 15.2312169,4 16.75,4 L19.25,4 Z" id="Combined-Shape" fill="#000000"></path>
            </g>
        </g>
    </g>
</svg>