<?xml version="1.0" encoding="UTF-8"?>
<svg width="27px" height="27px" viewBox="0 0 27 27" version="1.1" xmlns="http://www.w3.org/2000/svg" xmlns:xlink="http://www.w3.org/1999/xlink">
    <title>Icon</title>
    <g id="Final" stroke="none" stroke-width="1" fill="none" fill-rule="evenodd">
        <g id="Icon" transform="translate(0.231463, 0.633937)" fill-rule="nonzero">
            <g id="BG_3-px-CR">
                <rect id="Rectangle" fill="#FFFFFF" opacity="0" x="0" y="0" width="26" height="26"></rect>
                <path d="M19,4 C20.6568542,4 22,5.34314575 22,7 L22,19 C22,20.6568542 20.6568542,22 19,22 L7,22 C5.34314575,22 4,20.6568542 4,19 L4,7 C4,5.34314575 5.34314575,4 7,4 L19,4 Z M18.8761697,7.29787361 C18.8021742,7.26740489 18.7171401,7.28397606 18.66,7.34 L18.66,7.34 L7.34,18.66 C7.28084608,18.7196675 7.26529196,18.8099452 7.3010675,18.8859682 C7.33684305,18.9619913 7.4163196,19.0075487 7.5,19 L7.5,19 L17.5,19 C17.9013143,19.0000357 18.2859077,18.8392579 18.5677943,18.5536128 C18.849681,18.2679677 19.0053509,17.8812787 19,17.48 L19,17.48 L19,7.48 C18.998876,7.39998497 18.9501651,7.32834232 18.8761697,7.29787361 Z" id="Combined-Shape" fill="#000000"></path>
            </g>
        </g>
    </g>
</svg>