<svg xmlns="http://www.w3.org/2000/svg" xmlns:xlink="http://www.w3.org/1999/xlink" viewBox="0 0 28 28"><defs><style>.cls-1{clip-path:url(#clip-path);}</style><clipPath id="clip-path" transform="translate(5 5)"><path d="M14,7H9A1,1,0,0,0,8,8V9a1,1,0,0,0,1,1h5a1,1,0,0,0,1-1V8A1,1,0,0,0,14,7ZM5,7H4A1,1,0,0,0,3,8V9a1,1,0,0,0,1,1H5A1,1,0,0,0,6,9V8A1,1,0,0,0,5,7Zm9,5H9a1,1,0,0,0-1,1v1a1,1,0,0,0,1,1h5a1,1,0,0,0,1-1V13A1,1,0,0,0,14,12ZM5,12H4a1,1,0,0,0-1,1v1a1,1,0,0,0,1,1H5a1,1,0,0,0,1-1V13A1,1,0,0,0,5,12ZM15,0a3,3,0,0,1,3,3V15a3,3,0,0,1-3,3H3a3,3,0,0,1-3-3V3A3,3,0,0,1,3,0Z"/></clipPath></defs><title>data</title><g id="Layer_2" data-name="Layer 2"><g id="Layer_1-2" data-name="Layer 1"><path d="M14,7H9A1,1,0,0,0,8,8V9a1,1,0,0,0,1,1h5a1,1,0,0,0,1-1V8A1,1,0,0,0,14,7ZM5,7H4A1,1,0,0,0,3,8V9a1,1,0,0,0,1,1H5A1,1,0,0,0,6,9V8A1,1,0,0,0,5,7Zm9,5H9a1,1,0,0,0-1,1v1a1,1,0,0,0,1,1h5a1,1,0,0,0,1-1V13A1,1,0,0,0,14,12ZM5,12H4a1,1,0,0,0-1,1v1a1,1,0,0,0,1,1H5a1,1,0,0,0,1-1V13A1,1,0,0,0,5,12ZM15,0a3,3,0,0,1,3,3V15a3,3,0,0,1-3,3H3a3,3,0,0,1-3-3V3A3,3,0,0,1,3,0Z" transform="translate(5 5)"/><g class="cls-1"><rect width="28" height="28"/></g></g></g></svg>