<?xml version="1.0" encoding="UTF-8"?>
<svg width="27px" height="27px" viewBox="0 0 27 27" version="1.1" xmlns="http://www.w3.org/2000/svg" xmlns:xlink="http://www.w3.org/1999/xlink">
    <title>Icon</title>
    <defs>
        <path d="M5.6076957,0.0396226916 L0.260744981,14.4622893 L3.117749,14.4622893 L4.15065723,11.2807529 L8.60346529,11.2807529 C8.6762053,10.8980285 8.74894532,10.5992349 8.81049456,10.3709431 L8.81049456,10.3709431 C8.92464044,9.93674119 9.07907309,9.46225247 9.23462481,8.97657298 L9.23462481,8.97657298 L4.99779864,8.97657298 L7.06473418,3.02532058 C7.84249281,4.98818194 8.57660744,6.95440053 9.2648399,8.92509543 L9.2648399,8.92509543 C9.45060671,8.46851194 9.66882675,8.02647646 9.91614281,7.60122713 L9.91614281,7.60122713 L10.2361989,7.06518917 C10.5047774,6.642178 10.7319501,6.28966869 10.9076452,6.03116186 L10.9076452,6.03116186 L8.70642039,0.0396226916 L5.6076957,0.0396226916 Z" id="path-1"></path>
        <path d="M5.05007084,0.58373636 C3.27589905,2.25518022 1.87154781,4.27589905 0.921616588,6.5202022 L0.921616588,6.5202022 C0.294371928,7.83753684 -0.000517661626,9.29023063 0.0623276607,10.7501758 L0.0623276607,10.7501758 C0.0719961719,12.0759704 0.58684439,13.3485882 1.50172726,14.3081879 L1.50172726,14.3081879 C2.31388219,14.981358 3.31336453,15.3753498 4.35152091,15.4466551 L4.35152091,15.4466551 L5.02710813,15.4466551 C5.10929047,15.4406123 5.19026425,15.4333609 5.27365516,15.4236924 L5.27365516,15.4236924 C6.54869007,15.4261095 7.77779954,14.9438925 8.71081087,14.0737265 L8.71081087,14.0737265 C9.55680559,13.127421 10.0317712,11.9067715 10.0498997,10.6365708 L10.0498997,10.6365708 C10.1272478,9.04972642 9.78159848,7.47134198 9.0443745,6.06215648 L9.0443745,6.06215648 C8.10773749,3.97254951 6.74810311,2.09927548 5.05007084,0.560773646 L5.05007084,0.560773646 L5.05007084,0.58373636 Z" id="path-3"></path>
    </defs>
    <g id="Final" stroke="none" stroke-width="1" fill="none" fill-rule="evenodd">
        <g id="Icon" transform="translate(0.201605, 0.685517)">
            <g id="Theme_a" fill="#FFFFFF" fill-rule="nonzero" opacity="0">
                <rect id="Rectangle" x="0" y="0" width="26" height="26"></rect>
            </g>
            <g id="Group-3" transform="translate(2.876401, 4.104903)">
                <mask id="mask-2" fill="white">
                    <use xlink:href="#path-1"></use>
                </mask>
                <g id="Clip-2"></g>
                <polygon id="Fill-1" fill="#020202" mask="url(#mask-2)" points="-4.47630868 19.1836759 15.6502942 19.1836759 15.6502942 -4.69295466 -4.47630868 -4.69295466"></polygon>
            </g>
            <g id="Group-6" transform="translate(12.932250, 7.546934)">
                <mask id="mask-4" fill="white">
                    <use xlink:href="#path-3"></use>
                </mask>
                <g id="Clip-5"></g>
                <polygon id="Fill-4" fill="#020202" mask="url(#mask-4)" points="-5.05956611 20.5455862 15.1693763 20.5455862 15.1693763 -4.54903449 -5.05956611 -4.54903449"></polygon>
            </g>
        </g>
    </g>
</svg>