<?xml version="1.0" encoding="UTF-8"?>
<svg width="26px" height="26px" viewBox="0 0 26 26" version="1.1" xmlns="http://www.w3.org/2000/svg" xmlns:xlink="http://www.w3.org/1999/xlink">
    <!-- Generator: Sketch 64 (93537) - https://sketch.com -->
    <title>Artboard Copy 10</title>
    <desc>Created with Sketch.</desc>
    <g id="Artboard-Copy-10" stroke="none" stroke-width="1" fill="none" fill-rule="evenodd">
        <g id="Group-2" transform="translate(0.000000, 2.000000)"></g>
        <path d="M5.63514684,2.72747102 L5.72694804,2.81330753 L7.38796118,4.56955209 C9.18377571,3.52318403 11.0544553,3 13,3 C17.7193606,3 21.9982037,6.07849456 25.8365294,12.2354837 C25.9206371,12.3703994 25.9346551,12.5354022 25.8785833,12.680347 L25.8365294,12.7645057 L25.5909363,13.1533274 C24.0782051,15.5167028 22.4977142,17.406549 20.8494637,18.822866 L22.5078013,20.5778949 C22.8870511,20.9793772 22.8690281,21.6122857 22.4675457,21.9915354 C22.0969467,22.3416122 21.5291562,22.3531842 21.1457064,22.0371164 L21.0539052,21.9512799 L4.27305196,4.18669247 C3.89380218,3.78521015 3.91182521,3.15230174 4.31330753,2.77305196 C4.68390659,2.42297524 5.25169712,2.41140317 5.63514684,2.72747102 Z M4.3754539,6.88285988 L8.23734807,10.9733685 C8.08321497,11.4546119 8,11.967588 8,12.5 C8,15.2614237 10.2385763,17.5 13,17.5 C13.4327925,17.5 13.8527419,17.4450123 14.2532431,17.3416423 L17.6491784,20.9379582 C16.15011,21.6459861 14.6003838,22 13,22 C8.28063938,22 4.00179626,18.9215054 0.163470646,12.7645163 C0.0793629071,12.6296006 0.0653449342,12.4645978 0.121416734,12.319653 L0.163470586,12.2354943 L0.409063706,11.8466726 C1.68312854,9.85617123 3.00525861,8.20156701 4.3754539,6.88285988 Z M13,7.5 C12.1660512,7.5 11.379788,7.70416655 10.6884676,8.06524249 L17.2965243,15.0588217 C17.7433002,14.3102524 18,13.435104 18,12.5 C18,9.73857625 15.7614237,7.5 13,7.5 Z" id="Combined-Shape" fill="#000000"></path>
    </g>
</svg>