<?xml version="1.0" encoding="UTF-8"?>
<svg width="18px" height="18px" viewBox="0 0 18 18" version="1.1" xmlns="http://www.w3.org/2000/svg" xmlns:xlink="http://www.w3.org/1999/xlink">
    <title>layers</title>
    <g id="Page-1" stroke="none" stroke-width="1" fill="none" fill-rule="evenodd">
        <g id="layers" transform="translate(-1.000000, -1.000000)" fill="#000000" fill-rule="nonzero">
            <path d="M18.086799,14.131707 L18.5169375,15.0344699 L11.971949,18.1529541 C10.6842202,18.766517 9.19999676,18.8006038 7.89043516,18.2552146 L7.6612247,18.1529541 L1.11623622,15.0344699 L1.54637476,14.131707 L8.09136325,17.2501912 C9.11452532,17.7376963 10.2926637,17.7681653 11.3351978,17.3415984 L11.5418105,17.2501912 L18.086799,14.131707 Z M18.086799,10.131707 L18.5169375,11.0344699 L11.971949,14.1529541 C10.6842202,14.766517 9.19999676,14.8006038 7.89043516,14.2552146 L7.6612247,14.1529541 L1.11623622,11.0344699 L1.54637476,10.131707 L8.09136325,13.2501912 C9.11452532,13.7376963 10.2926637,13.7681653 11.3351978,13.3415984 L11.5418105,13.2501912 L18.086799,10.131707 Z M11.3850641,1.38894845 L17.1888308,4.15426349 C18.1859952,4.62938141 18.6091974,5.82290201 18.1340795,6.82006636 C17.936739,7.23423925 17.6030037,7.56797449 17.1888308,7.76531504 L11.3850641,10.5306301 C10.2966451,11.049228 9.03237474,11.049228 7.94395574,10.5306301 L2.140189,7.76531504 C1.14302465,7.29019712 0.719822396,6.09667652 1.19494031,5.09951217 C1.39228087,4.68533927 1.7260161,4.35160404 2.140189,4.15426349 L7.94395574,1.38894845 C9.03237474,0.870350517 10.2966451,0.870350517 11.3850641,1.38894845 Z M8.55094134,2.21431853 L8.37409428,2.29171134 L2.57032754,5.05702638 C2.3632411,5.15569665 2.19637348,5.32256427 2.0977032,5.52965072 C1.87711274,5.99261988 2.04380827,6.54024263 2.46794018,6.80631536 L2.57032754,6.86255215 L8.37409428,9.62786719 C9.13210038,9.98903361 10.0038267,10.0148312 10.7780785,9.70525999 L10.9549256,9.62786719 L16.7586923,6.86255215 C16.9243615,6.78361593 17.0642906,6.66103341 17.1641546,6.50912959 L17.2313166,6.38992781 C17.4519071,5.92695865 17.2852116,5.3793359 16.8610797,5.11326316 L16.7586923,5.05702638 L10.9549256,2.29171134 C10.1969195,1.93054492 9.32519317,1.90474732 8.55094134,2.21431853 Z"></path>
        </g>
    </g>
</svg>