<?xml version="1.0" encoding="UTF-8"?>
<svg width="20px" height="20px" viewBox="0 0 20 20" version="1.1" xmlns="http://www.w3.org/2000/svg" xmlns:xlink="http://www.w3.org/1999/xlink">
    <title>Group 3</title>
    <g id="Page-1" stroke="none" stroke-width="1" fill="none" fill-rule="evenodd">
        <g id="Group-3">
            <rect id="Rectangle" fill="#D8D8D8" opacity="0" x="0" y="0" width="20" height="20"></rect>
            <g id="Group" transform="translate(2.045632, 2.012327)" fill="#000000" fill-rule="nonzero">
                <path d="M12.7373755,0.58275574 C14.1167202,0.58275574 15.2349001,1.70093559 15.2349001,3.08028034 L15.2349001,13.0703787 C15.2349001,14.4497235 14.1167202,15.5679033 12.7373755,15.5679033 L2.74727706,15.5679033 C1.36793231,15.5679033 0.24975246,14.4497235 0.24975246,13.0703787 L0.24975246,3.08028034 C0.24975246,1.70093559 1.36793231,0.58275574 2.74727706,0.58275574 L12.7373755,0.58275574 Z M9.69872053,9.54054397 C8.72362849,8.56666464 7.1439778,8.56666464 6.16888576,9.54054397 L6.16888576,9.54054397 L2.63072591,13.0703787 L13.2285553,13.0703787 L9.69872053,9.54054397 Z M3.99603936,3.08028034 C3.30636699,3.08028034 2.74727706,3.63937027 2.74727706,4.32904264 C2.74727706,5.01871501 3.30636699,5.57780494 3.99603936,5.57780494 C4.68571173,5.57780494 5.24480166,5.01871501 5.24480166,4.32904264 C5.24480166,3.63937027 4.68571173,3.08028034 3.99603936,3.08028034 Z" id="Combined-Shape-Copy-16"></path>
            </g>
        </g>
    </g>
</svg>