<?xml version="1.0" encoding="UTF-8"?>
<svg width="26px" height="26px" viewBox="0 0 26 26" version="1.1" xmlns="http://www.w3.org/2000/svg" xmlns:xlink="http://www.w3.org/1999/xlink">
    <!-- Generator: Sketch 64 (93537) - https://sketch.com -->
    <title>tools</title>
    <desc>Created with Sketch.</desc>
    <defs>
        <path d="M16.1069968,0.609058369 C19.2969955,1.661472 21.5994152,4.66714945 21.5994152,8.21076877 C21.5994152,11.1726456 19.990903,13.7587065 17.6000447,15.1425043 L17.5992128,22.599314 C17.5992128,24.808453 15.8083518,26.599314 13.5992128,26.599314 C11.3900738,26.599314 9.59921277,24.808453 9.59921277,22.599314 L9.59920334,15.1428632 C7.20800306,13.7591536 5.59921277,11.1729016 5.59921277,8.21076877 C5.59921277,4.66714945 7.90163242,1.661472 11.0916311,0.609058369 C11.2586062,0.553971539 11.5995514,0.733654743 11.5994151,1.11740542 C11.5990558,2.12353334 11.5986418,3.28311745 11.5981731,4.59615774 L11.5992128,4.59531396 L11.5992128,8.09931396 C11.5992128,8.34477385 11.7760879,8.54892233 12.0093371,8.59125829 L12.0992128,8.59931396 L15.0992128,8.59931396 C15.3753551,8.59931396 15.5992128,8.37545634 15.5992128,8.09931396 L15.5992128,8.09931396 L15.5992128,4.57631396 L15.6004478,4.5763421 C15.5999819,3.27144796 15.5995703,2.11846907 15.5992128,1.11740542 C15.5990765,0.733654743 15.9400217,0.553971539 16.1069968,0.609058369 Z" id="path-1"></path>
    </defs>
    <g id="tools" stroke="none" stroke-width="1" fill="none" fill-rule="evenodd">
        <g transform="translate(13.599314, 13.599314) scale(-1, 1) rotate(-315.000000) translate(-13.599314, -13.599314) " fill="#000000">
            <use xlink:href="#path-1"></use>
            <use xlink:href="#path-1"></use>
        </g>
    </g>
</svg>