<?xml version="1.0" encoding="utf-8"?>
<!-- Generator: Adobe Illustrator 24.0.3, SVG Export Plug-In . SVG Version: 6.00 Build 0)  -->
<svg version="1.1" id="Layer_1" xmlns="http://www.w3.org/2000/svg" xmlns:xlink="http://www.w3.org/1999/xlink" x="0px" y="0px"
	 viewBox="0 0 12 15" style="enable-background:new 0 0 12 15;" xml:space="preserve">
<style type="text/css">
	.st0{clip-path:url(#SVGID_2_);}
</style>
<title>Icon</title>
<desc>Created with Sketch.</desc>
<g>
	<defs>
		<path id="SVGID_1_" d="M9.6,3c1.2,0,2.1,0.9,2.1,2.1v1.1c0,1.2-0.9,2.1-2.1,2.1H2.3c-1.2,0-2.1-0.9-2.1-2.1V5.1
			C0.2,3.9,1.1,3,2.3,3H9.6z M9.6,4H2.3C1.7,4,1.2,4.5,1.2,5.1v1.1c0,0.6,0.5,1.1,1.1,1.1h7.4c0.6,0,1.1-0.5,1.1-1.1V5.1
			C10.7,4.5,10.2,4,9.6,4z M3.1,13.6h5.3v-1.1H3.1V13.6z M3.1,10.9h5.3V9.8H3.1V10.9z"/>
	</defs>
	<clipPath id="SVGID_2_">
		<use xlink:href="#SVGID_1_"  style="overflow:visible;"/>
	</clipPath>
	<rect x="-5.1" y="-2.3" class="st0" width="22.1" height="21.1"/>
</g>
</svg>
