<?xml version="1.0" encoding="UTF-8"?>
<svg width="18px" height="18px" viewBox="0 0 18 18" version="1.1" xmlns="http://www.w3.org/2000/svg" xmlns:xlink="http://www.w3.org/1999/xlink">
    <title>Info Icon Copy 13</title>
    <defs>
        <path d="M0,9 C0,13.971 4.029,18 9,18 C13.971,18 18,13.971 18,9 C18,4.029 13.971,0 9,0 C4.029,0 0,4.029 0,9 Z" id="path-1"></path>
    </defs>
    <g id="Page-1" stroke="none" stroke-width="1" fill="none" fill-rule="evenodd">
        <g id="Group-17" transform="translate(-312.000000, -21.000000)">
            <g id="Group-3" transform="translate(24.000000, 21.000000)">
                <g id="Info-Icon-Copy-13" transform="translate(288.000000, 0.000000)">
                    <mask id="mask-2" fill="white">
                        <use xlink:href="#path-1"></use>
                    </mask>
                    <path stroke="#000000" d="M9,0.5 C11.3474167,0.5 13.4724234,1.45128023 15.0105716,2.98942839 C16.5487198,4.52757656 17.5,6.65258333 17.5,9 C17.5,11.3474167 16.5487198,13.4724234 15.0105716,15.0105716 C13.4724234,16.5487198 11.3474167,17.5 9,17.5 C6.65258333,17.5 4.52757656,16.5487198 2.98942839,15.0105716 C1.45128023,13.4724234 0.5,11.3474167 0.5,9 C0.5,6.65258333 1.45128023,4.52757656 2.98942839,2.98942839 C4.52757656,1.45128023 6.65258333,0.5 9,0.5 Z"></path>
                    <path d="M9,8 C9.55228475,8 10,8.44771525 10,9 L10,9 L10,12 C10,12.5522847 9.55228475,13 9,13 C8.44771525,13 8,12.5522847 8,12 L8,12 L8,9 C8,8.44771525 8.44771525,8 9,8 Z M9,5 C9.55228475,5 10,5.44771525 10,6 C10,6.55228475 9.55228475,7 9,7 C8.44771525,7 8,6.55228475 8,6 C8,5.44771525 8.44771525,5 9,5 Z" id="Combined-Shape" fill="#000000" mask="url(#mask-2)"></path>
                </g>
            </g>
        </g>
    </g>
</svg>