<?xml version="1.0" encoding="utf-8"?>
<!-- Generator: Adobe Illustrator 24.0.3, SVG Export Plug-In . SVG Version: 6.00 Build 0)  -->
<svg version="1.1" id="Layer_1" xmlns="http://www.w3.org/2000/svg" xmlns:xlink="http://www.w3.org/1999/xlink" x="0px" y="0px"
	 viewBox="0 0 12 15" style="enable-background:new 0 0 12 15;" xml:space="preserve">
<style type="text/css">
	.st0{fill-rule:evenodd;clip-rule:evenodd;}
</style>
<title>Icon</title>
<desc>Created with Sketch.</desc>
<g id="Symbols">
	<g id="Foundations-_x2F_-1.-Icons-_x2F_-1.-General-_x2F_-Light-_x2F_-Page" transform="translate(-3.500000, -2.500000)">
		<g id="Mask">
			<path id="path-1_1_" class="st0" d="M13,3c1.1,0,2,0.9,2,2l0,0v10c0,1.1-0.9,2-2,2l0,0H6c-1.1,0-2-0.9-2-2l0,0V5c0-1.1,0.9-2,2-2
				l0,0H13z M13,4H6C5.4,4,5,4.4,5,5l0,0v10c0,0.6,0.4,1,1,1l0,0h7c0.6,0,1-0.4,1-1l0,0V5C14,4.4,13.6,4,13,4L13,4z M12,9v1H7V9H12z
				 M12,6v1H7V6H12z"/>
		</g>
	</g>
</g>
</svg>
