<?xml version="1.0" encoding="UTF-8"?>
<svg width="17px" height="17px" viewBox="0 0 17 17" version="1.1" xmlns="http://www.w3.org/2000/svg" xmlns:xlink="http://www.w3.org/1999/xlink">
    <title>Group 4</title>
    <g id="Page-1" stroke="none" stroke-width="1" fill="none" fill-rule="evenodd">
        <g id="Group-4" transform="translate(0.500000, 0.500000)" fill="#000000">
            <path d="M4.965,10.035 C5.51728475,10.035 5.965,10.4827153 5.965,11.035 L5.965,14.117 L4.947,14.117 L4.947,11.775 L0.72,16 L1.77635684e-15,15.28 L4.225,11.054 L1.892,11.053 L1.892,10.035 L4.965,10.035 Z" id="Path"></path>
            <path d="M14.108,10.0349996 L14.108,11.053 L11.775,11.053 L16,15.28 L15.28,16 L11.054,11.775 L11.053,14.117 L10.035,14.117 L10.035,11.0349996 L10.041,10.918 C10.1003605,10.414128 10.5276437,10.0345596 11.035,10.0349996 L14.108,10.0349996 L14.108,10.0349996 Z" id="Path"></path>
            <path d="M0.72,1.59872116e-14 L4.946,4.225 L4.947,1.883 L5.965,1.883 L5.965,4.965 C5.965,5.51728475 5.51728475,5.965 4.965,5.965 L1.892,5.965 L1.892,4.947 L4.225,4.947 L1.77635684e-15,0.72 L0.72,1.59872116e-14 Z" id="Path"></path>
            <path d="M15.28,-2.5313085e-14 L16,0.72 L11.775,4.946 L14.108,4.947 L14.108,5.96500038 L11.035,5.96500038 C10.5276437,5.96544041 10.1003605,5.58587198 10.041,5.082 L10.035,4.965 L10.035,1.883 L11.053,1.883 L11.053,4.225 L15.28,-2.5313085e-14 Z" id="Path"></path>
        </g>
    </g>
</svg>