<?xml version="1.0" encoding="UTF-8"?>
<svg width="90px" height="84px" viewBox="0 0 90 84" version="1.1" xmlns="http://www.w3.org/2000/svg" xmlns:xlink="http://www.w3.org/1999/xlink">
    <!-- Generator: Sketch 64 (93537) - https://sketch.com -->
    <title>Illustration Copy 2</title>
    <desc>Created with Sketch.</desc>
    <g id="FLOW-AFTER-ZOHAR" stroke="none" stroke-width="1" fill="none" fill-rule="evenodd">
        <g id="3" transform="translate(-925.000000, -242.000000)">
            <g id="Group-6" transform="translate(785.000000, 150.000000)">
                <g id="Group-4">
                    <g id="Foundations-/-2.-Illustrations-/-Progress-Bar" transform="translate(140.000000, 92.000000)">
                        <g id="Illustration">
                            <path d="M35.4583333,53 L1.54166667,53 C0.690666667,53 0,52.3223571 0,51.4857143 L0,1.51428571 C0,0.677642857 0.690666667,0 1.54166667,0 L35.4583333,0 C36.3093333,0 37,0.677642857 37,1.51428571 L37,51.4857143 C37,52.3223571 36.3093333,53 35.4583333,53" id="Fill-1" fill="#2B5672"></path>
                            <path d="M13.2,9 L11,13.9322034 L15.3333333,13.9322034 L13.2,9 Z M13.12,8 L14.0266667,8 L18,17 L17.0133333,17 L15.9874074,14.6101695 L10.9866667,14.6101695 L9.92,17 L9,17 L13.12,8 Z" id="Fill-3" fill="#FFFFFF"></path>
                            <path d="M26.2933884,15.3065432 C26.2933884,14.9872403 26.2234848,14.6868435 26.0836777,14.4053528 C25.9438705,14.1238621 25.755854,13.8801836 25.5196281,13.6743173 C25.2834022,13.4684509 25.0045914,13.3045981 24.6807851,13.1827589 C24.3577824,13.0609196 24.0130854,13 23.6466942,13 C23.280303,13 22.9356061,13.0609196 22.6126033,13.1827589 C22.2896006,13.3045981 22.0099862,13.4684509 21.7737603,13.6743173 C21.5375344,13.8801836 21.3495179,14.1238621 21.2097107,14.4053528 C21.0699036,14.6868435 21,14.9872403 21,15.3065432 C21,15.6258461 21.0699036,15.9262429 21.2097107,16.2077336 C21.3495179,16.4885241 21.5375344,16.7329028 21.7737603,16.9387692 C22.0099862,17.1446355 22.2896006,17.3077881 22.6126033,17.4296273 C22.9356061,17.5521668 23.280303,17.6130864 23.6466942,17.6130864 C24.0130854,17.6130864 24.3577824,17.5521668 24.6807851,17.4296273 C25.0045914,17.3077881 25.2834022,17.1446355 25.5196281,16.9387692 C25.755854,16.7329028 25.9438705,16.4885241 26.0836777,16.2077336 C26.2234848,15.9262429 26.2933884,15.6258461 26.2933884,15.3065432 L26.2933884,15.3065432 Z M27,17.5969034 C27,18.3195363 26.8794766,18.9035245 26.6384298,19.348868 C26.3973829,19.7935112 26.0960744,20.1380223 25.7345041,20.382401 C25.3737374,20.6260795 24.9848485,20.7892321 24.5710514,20.8732592 C24.1556474,20.9572862 23.7796143,21 23.4421488,21 C23.1046832,21 22.774449,20.9726912 22.4514463,20.9180736 C22.1284435,20.863456 21.8231175,20.7829301 21.5330579,20.6785964 C21.2438017,20.5735626 20.9810606,20.4454213 20.7448347,20.2934723 C20.5086088,20.1422236 20.303719,19.9699681 20.1301653,19.7774061 L20.8099174,19.2228274 C21.1184573,19.6009492 21.5041322,19.8775383 21.9669421,20.0539952 C22.4297521,20.230452 22.9214876,20.3186805 23.4421488,20.3186805 C23.8856749,20.3186805 24.2592975,20.2689644 24.5630165,20.1674317 C24.867539,20.0672995 25.1174242,19.9342566 25.3150826,19.771104 C25.512741,19.6072512 25.667011,19.426593 25.7778926,19.2291294 C25.8887741,19.0309655 25.97073,18.8335019 26.0237603,18.6367385 C26.0767906,18.4392749 26.1089302,18.2523146 26.1177686,18.0751576 C26.1274105,17.8987007 26.1322314,17.7565549 26.1322314,17.6473197 L26.1322314,16.8406598 L26.1033058,16.8406598 C25.8526171,17.1928733 25.512741,17.4708628 25.0836777,17.6725278 C24.6546143,17.8741928 24.1508264,17.9750253 23.572314,17.9750253 C23.0805785,17.9750253 22.6177686,17.8973002 22.1838843,17.7418502 C21.75,17.5864001 21.3715565,17.3714308 21.0485537,17.099043 C20.725551,16.825955 20.4700413,16.5087528 20.2828283,16.1467362 C20.0940083,15.78612 20,15.3995954 20,14.9878628 C20,14.5761301 20.0940083,14.1889053 20.2828283,13.8282891 C20.4700413,13.4669727 20.725551,13.1518712 21.0485537,12.8822843 C21.3715565,12.6133977 21.75,12.3998288 22.1838843,12.2394772 C22.6177686,12.0805259 23.0805785,12 23.572314,12 C24.1508264,12 24.6546143,12.1015327 25.0836777,12.3031977 C25.512741,12.5048627 25.8526171,12.782152 26.1033058,13.1350657 L26.1322314,13.1350657 L26.1322314,12.1512487 L27,12.1512487 L27,17.5969034 Z" id="Fill-5" fill="#FFFFFF"></path>
                            <path d="M67.4583333,65 L33.5416667,65 C32.6906667,65 32,64.3223571 32,63.4857143 L32,13.5142857 C32,12.6776429 32.6906667,12 33.5416667,12 L67.4583333,12 C68.3101042,12 69,12.6776429 69,13.5142857 L69,63.4857143 C69,64.3223571 68.3101042,65 67.4583333,65" id="Fill-7" fill="#A7E3FA"></path>
                            <polygon id="Fill-9" fill="#2B5672" points="42 52 58 52 58 51 42 51"></polygon>
                            <polygon id="Fill-11" fill="#2B5672" points="42 57 58 57 58 56 42 56"></polygon>
                            <polygon id="Fill-12" fill="#FFFFFF" points="10 40 26 40 26 39 10 39"></polygon>
                            <polygon id="Fill-13" fill="#FFFFFF" points="10 45 26 45 26 44 10 44"></polygon>
                            <path d="M51.6308202,23 C50.6901455,23.801488 46.4262432,28.7123963 46,29.1958576 C46.5592605,29.5584535 47.1324842,29.9210494 47.8085942,30.1778881 L51.6308202,23 Z M44.5161249,29.2944384 C44.3544465,29.2188976 44.2074661,29.1433568 44.0751837,29.0980323 C42.8405481,28.7354364 41.2671226,29.4153037 40.4587302,30.5340631 C39.6202069,31.7419608 39.8855066,32.9966937 41.6345737,31.8635815 C42.7075308,31.168606 43.6342424,30.2613608 44.5161249,29.2944384 L44.5161249,29.2944384 Z M53.3764307,29.2602126 C52.0683048,31.1638411 50.730048,31.6178414 49.4219222,31.4063271 C49.2161496,31.8142475 49.010377,32.2070597 48.8046044,32.5696556 C48.5841338,32.9624679 47.4229884,32.1013026 47.8051375,31.3300309 C47.8639297,31.209921 47.9374199,31.0731921 47.9962121,30.9523268 C47.290706,30.6207026 46.6285592,30.1825659 46.0406375,29.7889983 C44.9529823,31.0429758 43.7323099,32.3581414 42.2331095,32.8718189 C40.2488737,33.5222253 37.925848,31.5876251 39.5426327,29.5472677 C40.8808895,27.8702616 42.9092195,27.5076657 44.8647941,28.1573167 C45.0558686,28.2177494 45.2469432,28.2932902 45.4233197,28.3839391 C45.9965434,27.71918 46.569767,27.0385573 47.1584236,26.4047698 C48.5400397,24.87809 50.1575593,22.7924081 51.7596459,21.4931061 C52.450454,20.9333487 53.2000541,20.7218344 53.8328049,21.5535388 C54.4648207,22.3693795 53.1265639,24.3493043 52.7738109,25.0284162 C51.9507205,26.6306369 50.9365555,28.5803453 49.9804479,30.3782166 C51.5832694,30.3631085 52.3328696,28.9731575 53.1265639,27.8400453 C53.3911287,27.4472331 53.9797853,28.368831 53.3764307,29.2602126 L53.3764307,29.2602126 Z" id="Fill-14" fill="#2B5672"></path>
                            <path d="M56.5051101,29.2627515 L56.7868327,28.9046552 C57.2094166,28.3030535 57.8511182,27.2280485 57.6163493,27.0282308 C57.350278,26.8276969 56.1607825,27.7157756 55.1739707,29.0478938 C54.5322692,29.9073248 53.8436139,31.0102613 54.031429,31.2251191 C54.1722903,31.3833976 54.9556357,31.038909 56.5051101,29.2627515 M60.7817758,29.1201481 C60.2496331,29.8363406 59.7487929,30.3226353 59.1540452,30.6957716 C58.3706998,31.1684587 57.165553,31.5695265 56.0386626,31.9569867 C55.1621922,33.174514 53.9875654,34.9506715 53.3771664,35.6246087 C52.7354649,36.3408012 52.3285322,35.8530741 52.1407172,35.6246087 C51.8425607,35.2801201 52.0468096,34.5496037 52.4850448,33.7617919 C52.9389312,32.9596563 53.4554227,32.3723784 54.5510107,31.7843843 C54.6136157,31.712765 54.8483845,31.4406119 55.1152385,31.1111633 C54.6926545,31.1971064 54.2387681,31.0825156 53.7997503,30.6671239 C52.7824187,29.7360736 53.1893513,28.6897163 54.3631956,27.0567973 C55.0048971,26.1823263 55.88215,25.4811738 56.555154,25.1653328 C57.102948,24.8931797 57.4942294,24.9647989 57.9950696,25.3228952 C58.2767923,25.5234291 58.7463299,25.7096392 58.7619812,26.0820593 C59.1853477,26.226014 59.5922804,26.6414057 59.4827216,26.8268995 C59.3254264,27.1427404 57.5724857,29.7074259 56.8525279,30.7244193 C57.1342505,30.6098285 57.4472757,30.4658738 57.5411832,30.4236185 C57.9168134,30.2653399 58.6219025,29.8649883 59.0288351,29.4782443 C59.5453266,28.9761934 60.061818,28.3753078 60.4374482,27.9019045 C60.6252633,27.6440752 61.3608723,28.3316201 60.7817758,29.1201481" id="Fill-15" fill="#2B5672"></path>
                            <path d="M33,69.5 C33,70.328 26.5078158,71 18.5,71 C10.4921842,71 4,70.328 4,69.5 C4,68.672 10.4921842,68 18.5,68 C26.5078158,68 33,68.672 33,69.5" id="Fill-16" fill="#D9E1E8"></path>
                            <path d="M65,82.5 C65,83.328 58.5078158,84 50.5,84 C42.4921842,84 36,83.328 36,82.5 C36,81.672 42.4921842,81 50.5,81 C58.5078158,81 65,81.672 65,82.5" id="Fill-17" fill="#D9E1E8"></path>
                            <polyline id="Stroke-18" stroke="#7992A5" stroke-linecap="round" stroke-linejoin="round" points="74 31 71 28 74 25"></polyline>
                            <path d="M73.9679403,28 L79.3868806,28 C84.696209,28 89,22.6541155 89,17.5003695 C89,12.3458845 84.696209,7 79.3868806,7 L38,7" id="Stroke-19" stroke="#7992A5" stroke-linecap="round" stroke-dasharray="1,3"></path>
                        </g>
                    </g>
                </g>
            </g>
        </g>
    </g>
</svg>